<svg xmlns="http://www.w3.org/2000/svg" viewBox="0 0 686.27 307.57"><defs><style>.cls-1{fill:#fff;}</style></defs><g id="Livello_2" data-name="Livello 2"><g id="Livello_1-2" data-name="Livello 1"><path class="cls-1" d="M124.14,132.34c5.43-5.36,6.69-9.79,4.22-14.57a10.54,10.54,0,0,0-11.06-5.65,10.71,10.71,0,0,0-8.79,9.68c-.42,5.2,2.52,9,9.44,11.74.47,3.92,1,8,1.5,12.46q-3.81,2.7-7.6,5.38c-3.73,2.62-7.5,5.19-11.17,7.89a3.48,3.48,0,0,1-3.92.41c-7.53-3.23-15.12-6.34-22.69-9.49a9,9,0,0,1-4.68-4.47,25.18,25.18,0,0,1,8.41-32.8l1.41-1c.27-3.42.2-6.69.82-9.84,1.47-7.46,6.06-12.2,13.44-14.16,4.23-1.13,4.64-1.61,4.09-5.91a16.48,16.48,0,0,1,1.28-8.78,27.42,27.42,0,0,1,15.68-14.95,5.32,5.32,0,0,1,6.09,1c3.38,3,6.89,5.94,9.87,8.49-1,3.21-2.4,5.95-2.59,8.77-.34,5.37,3.86,9.64,9.29,10.22A10.57,10.57,0,0,0,148,79c1.26-5-1.3-10.62-6.18-12.07-3.7-1.11-6.43-3.31-9.22-5.63s-5.52-4.7-8.35-7.11a14.86,14.86,0,0,1,4.62-6.88c7.67-6.39,16.3-8,25.53-4.14,6.27,2.63,9.71,7.44,9.73,14.61q.3,90.54.75,181.06c0,7.07-3,12.87-7.8,17.77-10.76,10.91-28.73,11.94-40.25,2.43a22.42,22.42,0,0,1-8.32-16.44l15.59-6.12c.61,1,1.12,1.84,1.69,2.67a9.55,9.55,0,1,0,15.1-11.62c-3.37-3.94-9.9-4.45-13.6-.62a17.78,17.78,0,0,1-6.84,4.21c-5.11,1.94-10.21,3.9-15.26,6a9.55,9.55,0,0,1-7.2.09c-9.45-3.39-14.68-10.42-17-19.83a66.89,66.89,0,0,1-1-8.07l18.9-12.2c3.32,1,5.82,2.18,8.42,2.49,6,.74,10.32-4.91,10.68-9.23a10.84,10.84,0,0,0-9.18-11.73c-5.08-.77-10.94,3.06-11.43,8.38-.34,3.62-2.26,5.13-4.83,6.73-4.54,2.82-9,5.76-13.6,8.72-3.36-1.12-5.78-3.44-7.87-6.11-7.68-9.78-8.55-26.77-2-37.31,1.77-2.82,2.22-3.13,5.4-1.84C81.72,160.11,89,163,96,166.38c2.43,1.15,4,1,6-.38,5.94-4.24,11.92-8.41,17.9-12.6,1-.67,1.94-1.27,3.24-2.11l11.46,8.39c-.48,1-.94,1.9-1.32,2.82-2.27,5.52.38,11.69,5.76,13.44A10.06,10.06,0,0,0,152,169a9.82,9.82,0,0,0-8.28-12.32,11.69,11.69,0,0,1-6.24-2.71c-3-2.28-6-4.64-9.16-6.66a6.14,6.14,0,0,1-3.06-5.41C125.08,138.68,124.52,135.46,124.14,132.34Z"/><path class="cls-1" d="M246.11,86.68c1.23.54,2.38,1.09,3.57,1.56a25.25,25.25,0,0,1,10.1,7.17c4.16,4.93,5.82,10.41,3.11,17,6.76,3.9,11.32,9.55,12.63,17.35,1.28,7.64-.53,14.75-4.52,21.49a38.42,38.42,0,0,1,5.92,15.15c1.79,12.43.4,24.35-7.63,34.46a20.88,20.88,0,0,0-4.89,11.48c-1.21,10.77-7,19.19-16.26,25A16.42,16.42,0,0,1,241.7,240c-2.56.32-3.42,1.59-4.22,3.69-4.15,10.9-11.65,18.27-22.94,21.72-14.16,4.33-31.19-2.77-36.36-20.91a10.22,10.22,0,0,1-.25-2.71q-.36-93.28-.7-186.57a4.08,4.08,0,0,0,0-.78c-.91-4.64,1.72-7.2,5.27-9.42,11.93-7.45,26.23-5.11,35,6a6.28,6.28,0,0,0,4.43,2.55C233,55.29,244.67,67,246.59,78.05a18.65,18.65,0,0,1,.17,4.29C246.68,83.74,246.35,85.13,246.11,86.68ZM258,207.92c-4.32-2.52-8.06-4.66-11.75-6.86-2.8-1.68-5.36-2.75-9-1.55-5.15,1.69-10.23-2-11.33-7.39A9.64,9.64,0,0,1,233.55,181c4.77-1,10.2,2.11,10.88,7.11.5,3.65,2.44,5.37,5.26,6.89,2.52,1.36,4.95,2.89,7.44,4.31,2.87,1.62,3.11,1.78,5.2-.89a39.23,39.23,0,0,0,5.53-8.88c3.39-8.2,3.58-16.76,1.35-25.31-.77-2.95-1.66-6-4.06-8.35l-15.64,11.3c-4.4,3.2-4.58,3.21-9.3.19l-17.42-11.21-5.16-3.3-10.11,9.37c.23.93.43,1.68.58,2.43a9.36,9.36,0,0,1-8.21,11.19c-5,.57-9.78-3.62-10.09-8.78a9.16,9.16,0,0,1,9.53-9.63,5.78,5.78,0,0,0,5.42-2.11,32.36,32.36,0,0,1,3.13-2.94c6.8-6.24,6.76-6.25,8.08-15.17.4-2.67.24-4.78-1.88-7-3.68-4-2.63-10.24,1.68-13.47A9.59,9.59,0,0,1,229,118.63c3.5,4.54,2.28,10.69-2.68,13.94-1,.67-2.43,1.47-2.69,2.46-1,3.87-1.61,7.85-2.38,11.88,4,2.6,7.84,5.08,11.67,7.54l11.8,7.57c6.56-4.75,12.9-9.32,19.22-13.92a5.92,5.92,0,0,0,1.64-1.63c5.65-9.39,4.67-24.2-8.26-28.76-4.13-1.46-4.72-4-2-7.45,2.32-2.94,2.57-5,.66-8.15a18.7,18.7,0,0,0-11-8.21c-5.43-1.64-6.81-3.91-5.55-9.6a12.56,12.56,0,0,0-.54-7.67A27.11,27.11,0,0,0,225.2,61.74,39.1,39.1,0,0,0,219.74,60c-1.75,3-3.15,5.7-4.77,8.2a7.5,7.5,0,0,0-.92,7.21c1.8,5.17-1.7,10.48-7.24,11.84a9.78,9.78,0,0,1-11.7-7.67,9.66,9.66,0,0,1,8.12-11.39c1.26-.17,2.55-.16,3.89-.24l6.06-10.76c-3.61-7.27-13.92-12.25-23.92-7.92-4.86,2.1-5.17,2.49-5.14,7.79q.39,91.16.79,182.29c.05,11.86,12.05,22,23.87,20.21,10.42-1.61,17.45-7.61,21.73-17.05a21.13,21.13,0,0,0,.77-2.61l-13.75-1c-4.17,5.07-7.95,6.46-12.46,4.61a9.45,9.45,0,0,1-6-9.6,9.69,9.69,0,0,1,7.1-8.42c4.89-1.17,8.49.82,11.86,6.5,6.55.53,13,1.22,19.51,1.5a12,12,0,0,0,5.94-1.52c7-3.8,11.24-9.94,13.48-17.46A48.3,48.3,0,0,0,258,207.92Z"/><path class="cls-1" d="M290.39,227l15.26,13.45a150.52,150.52,0,0,1-23.95,31c-13.28,13-28.59,22.57-46.76,27-24.21,5.92-47.51,3.67-69.47-8.66a63,63,0,0,1-6.78-4.59c-1.55-1.16-1.58-2.49-.32-4a7.62,7.62,0,0,1,1.14-1.06c5-4,9.93-8,15-12,2.27-1.79,3.65-1.94,5.53-.1,5.77,5.65,13.15,7.73,20.62,9.53a64.41,64.41,0,0,0,11.55,1.72c19.69,1.05,36.32-6.33,50.88-19a133.57,133.57,0,0,0,24.44-28.82Z"/><path class="cls-1" d="M46.63,241.67c-.31,4.47-.62,8.59-.89,12.71-.19,3-.21,6-.51,9a8,8,0,0,0,1.62,5.8Q55.43,281,63.79,293.06a15.16,15.16,0,0,1,2.27,4.46,7.8,7.8,0,0,1-3.44,8.82,8.17,8.17,0,0,1-9.48-.63,14.84,14.84,0,0,1-2.57-2.9c-6.34-8.92-12.58-17.9-19-26.76a15.1,15.1,0,0,1-3-10.58c.65-8.31,1.09-16.63,1.45-25a5.34,5.34,0,0,1,2.62-4.8c4.58-3,9.07-6.11,13.53-9.27a4.93,4.93,0,0,1,4.73-.74c7.69,2.39,15.42,4.65,23.12,7a16.38,16.38,0,0,1,8.29,5.55c7,8.77,14.08,17.42,21.06,26.18a14.8,14.8,0,0,1,2.63,4.69,8,8,0,0,1-12.18,8.71,16.8,16.8,0,0,1-3.32-3.26c-6.34-7.77-12.67-15.55-18.9-23.4a9.91,9.91,0,0,0-5.3-3.65C59.82,245.69,53.39,243.69,46.63,241.67Z"/><path class="cls-1" d="M310.6,231.42l-15.07-13.25c2.49-6,5.05-11.66,7.22-17.48A107.83,107.83,0,0,0,309.6,170c1.09-16.52-2.4-32.06-9.57-46.86-1.18-2.46-2.49-4.86-3.95-7.69L308.7,104C333.1,142.26,331.47,194.32,310.6,231.42Z"/><path class="cls-1" d="M17.73,169,0,171.37c11.37-39.1,22.58-77.63,34-116.75,4.4,3.76,8.39,7.19,12.42,10.58,1.42,1.2.87,2.54.47,3.92q-4.55,15.55-9.06,31.12Q28.07,133.6,18.34,167C18.2,167.46,18,168,17.73,169Z"/><path class="cls-1" d="M291.26,106.29c-4.81-5.68-9.45-11.12-14-16.6C272,83.4,266.68,77.12,261.51,70.75a49.4,49.4,0,0,1-5.13-7.35c-6.82-12.55-11.91-25.74-14.06-39.94a35.66,35.66,0,0,1-.23-5.85c.1-5.54,3.27-9,8.11-9.06s7.86,3.43,8.32,9a68.72,68.72,0,0,0,1.68,11.55c3.71,14,9.63,26.85,19.7,37.67,7.45,8,14.23,16.63,21.29,25,.83,1,1.51,2.09,2.49,3.45Z"/><path class="cls-1" d="M352.7,185.47V130.72c8.24.34,16.32-.88,24.25.92,9.67,2.2,13.05,10.31,11.25,18.79a8.32,8.32,0,0,1-4.79,5.84c-.92.44-1.86.83-3,1.33,6.68,2.32,9.23,4.85,9.31,12.44a14.72,14.72,0,0,1-10,14.43,17.06,17.06,0,0,1-3.79.86,50.41,50.41,0,0,1-5.07.13Zm14.92-21.81v9.83c4.84-.08,6.9-1.75,6.8-5.3S372.27,163.36,367.62,163.66Zm-.09-20.72v8.65c4.22.27,6.14-1,6.31-4C374,144.27,372.29,142.91,367.53,142.94Z"/><path class="cls-1" d="M530,163.54q4.93,10.29,10.4,21.68h-16l-7.13-18.84c-1.15,6.2-.59,12.44-1,18.85H501.86V130.82c7.88.12,15.56-.84,23.12.85,10.87,2.42,16.7,15.31,11.21,25C534.79,159.2,532.29,161.07,530,163.54Zm-13.27-7.87c4.5-.11,6.49-2.3,6.39-6.67-.09-3.95-1.85-5.52-6.39-5.5Z"/><path class="cls-1" d="M130.36.6c-.33,6.18-.67,11.63-.89,17.08a3.2,3.2,0,0,1-2,3q-3,1.48-5.91,3L58.15,56.49c-1.27.66-2.55,1.29-4.14,2.09L40.54,47.15Z"/><path class="cls-1" d="M665.21,126v25.06c.93-.76,1.4-1.09,1.8-1.49,4.65-4.72,11.72-4.19,15.42,1.26a17.06,17.06,0,0,1,2.34,4.91,39,39,0,0,1,.28,20.43,22.33,22.33,0,0,1-1,2.94c-3.24,7.86-12.75,9.9-18.13,2.76l-.73,3.39H651V126Zm-.7,40a47.32,47.32,0,0,0,1.26,6,2.46,2.46,0,0,0,4.6.13,15.71,15.71,0,0,0-.12-12.08,2.37,2.37,0,0,0-4.54.16A43.24,43.24,0,0,0,664.51,166Z"/><path class="cls-1" d="M626.26,151.53c.11-1.69.18-2.82.26-4.15h14.23v37.87c-4.51.45-9.13.13-13.9.2v-4.38l-.57-.47a26.1,26.1,0,0,1-2.35,3,9.25,9.25,0,0,1-14.29-1.33,17.14,17.14,0,0,1-2.56-5.22,38.12,38.12,0,0,1-.16-20.81,18.53,18.53,0,0,1,2.45-5.28c3.71-5.53,10.27-6.07,15-1.36C624.91,150.08,625.4,150.62,626.26,151.53Zm.37,14.67a45,45,0,0,0-.92-6,2.25,2.25,0,0,0-4.37-.35,17.88,17.88,0,0,0-.53,12.5c.25.82,1.44,2,2.07,1.9a3.55,3.55,0,0,0,2.52-1.87A45.24,45.24,0,0,0,626.63,166.2Z"/><path class="cls-1" d="M450.71,151.7c.13-1.94.21-3.09.3-4.37H465v38c-4.49.3-9.1.15-13.78.08-.08-1.51-.15-2.76-.25-4.68-1.08,1.19-1.7,1.95-2.41,2.63-4.8,4.58-11.64,3.92-15-1.82a29.09,29.09,0,0,1-3.11-9.14,32.06,32.06,0,0,1,1-16.57,19.47,19.47,0,0,1,3.06-5.81c3.8-4.69,9.69-4.88,14-.68C449.09,149.93,449.66,150.59,450.71,151.7Zm.21,14.46c-.21-1.81-.37-3.35-.56-4.89s-.77-3.09-2.41-2.94a4,4,0,0,0-2.63,2.35,19,19,0,0,0-.34,11.44,3.75,3.75,0,0,0,2.34,2.21c1.51.36,2.32-1.05,2.63-2.3C450.44,170,450.63,168,450.92,166.16Z"/><path class="cls-1" d="M574.09,131h14.23v41.09h11V185.4c-8.31.14-16.7,0-25,.06C573.39,182.33,573.24,135.18,574.09,131Z"/><path class="cls-1" d="M490.4,131v54.31H476V131Z"/><path class="cls-1" d="M40.82,218.09l-13.61,9.35L1.78,181.24l17.47-2.35Z"/><path class="cls-1" d="M398.82,147.32H412.9v4.76c5.75-5.47,5.75-5.47,10-5.51v15.09c-7.21-1.25-9.43.55-9.54,7.74-.09,5.19,0,10.37,0,15.81H398.89C398.76,172.71,398.85,160.18,398.82,147.32Z"/><path class="cls-1" d="M140.36,0c1.39.85,2.28,1.3,3.08,1.89q14,10.22,28,20.48c2.15,1.57,3.92,3.36,4.41,6.15a8,8,0,0,1-10.41,9.1,15.61,15.61,0,0,1-4.06-2.22c-6.53-4.72-13-9.55-19.54-14.23a4.81,4.81,0,0,1-2.37-4.83C139.9,11.09,140.07,5.82,140.36,0Z"/></g></g></svg>